<?xml version="1.0" encoding="UTF-8"?>
<svg width="30px" height="33px" viewBox="0 0 30 33" version="1.1" xmlns="http://www.w3.org/2000/svg" xmlns:xlink="http://www.w3.org/1999/xlink">
    <!-- Generator: Sketch 55.2 (78181) - https://sketchapp.com -->
    <title>Shape</title>
    <desc>Created with Sketch.</desc>
    <g id="Symbols" stroke="none" stroke-width="1" fill="none" fill-rule="evenodd">
        <g id="card-plan-classic" transform="translate(-143.000000, -28.000000)" fill="#685556" fill-rule="nonzero">
            <path d="M172.986245,35.6523262 C172.986245,35.529012 172.958735,35.4056979 172.903714,35.2892346 C172.793673,35.0563079 172.580468,34.8987399 172.34663,34.8507844 L158.337001,28.0822094 C158.110041,27.9725969 157.841816,27.9725969 157.614856,28.0822094 L143.467675,34.9124414 C143.192572,35.0426063 143.013755,35.3166377 143,35.624923 L143,35.6317738 C143,35.6386246 143,35.6454754 143,35.6591769 L143,52.7998395 C143,53.1149755 143.178817,53.4027085 143.467675,53.5397242 L157.614856,60.3699562 C157.621733,60.3699562 157.621733,60.3699562 157.628611,60.376807 C157.649243,60.3836578 157.669876,60.3905085 157.690509,60.4042101 C157.697387,60.4042101 157.704264,60.4110609 157.718019,60.4110609 C157.738652,60.4179117 157.759285,60.4247625 157.779917,60.4316133 C157.786795,60.4316133 157.793673,60.438464 157.80055,60.438464 C157.821183,60.4453148 157.848693,60.4453148 157.869326,60.4521656 C157.876204,60.4521656 157.883081,60.4521656 157.889959,60.4521656 C157.917469,60.4521656 157.951857,60.4590164 157.979367,60.4590164 C158.006878,60.4590164 158.041265,60.4590164 158.068776,60.4521656 C158.075653,60.4521656 158.082531,60.4521656 158.089409,60.4521656 C158.110041,60.4521656 158.137552,60.4453148 158.158184,60.438464 C158.165062,60.438464 158.171939,60.4316133 158.178817,60.4316133 C158.19945,60.4247625 158.220083,60.4179117 158.240715,60.4110609 C158.247593,60.4110609 158.25447,60.4042101 158.268226,60.4042101 C158.288858,60.3973593 158.309491,60.3905085 158.330124,60.376807 C158.337001,60.376807 158.337001,60.376807 158.343879,60.3699562 L172.532325,53.5191718 C172.814305,53.3821561 173,53.0944232 173,52.7792871 L173,35.6728785 C172.986245,35.6660277 172.986245,35.6591769 172.986245,35.6523262 Z M157.828443,29.9672131 L170.04918,35.7159947 L165.548606,37.8360656 L153.327869,32.087284 L157.828443,29.9672131 Z M157.774248,41.7704918 L145.459016,35.778804 L151.340506,32.9180328 L163.655738,38.9097206 L157.774248,41.7704918 Z M144.967213,36.852459 L157.262295,42.8354338 L157.262295,58 L144.967213,52.0170252 L144.967213,36.852459 Z M158.737705,58 L158.737705,42.8548881 L164.490697,40.0469721 L164.490697,44.007897 C164.490697,44.4555358 164.854896,44.8217857 165.300028,44.8217857 C165.74516,44.8217857 166.109359,44.4555358 166.109359,44.007897 L166.109359,39.2534306 L171.032787,36.852459 L171.032787,51.997571 L158.737705,58 Z" id="Shape"></path>
        </g>
    </g>
</svg>