<?xml version="1.0" encoding="UTF-8"?>
<svg width="36px" height="30px" viewBox="0 0 36 30" version="1.1" xmlns="http://www.w3.org/2000/svg" xmlns:xlink="http://www.w3.org/1999/xlink">
    <!-- Generator: Sketch 55.2 (78181) - https://sketchapp.com -->
    <title>icDiamond</title>
    <desc>Created with Sketch.</desc>
    <g id="Symbols" stroke="none" stroke-width="1" fill="none" fill-rule="evenodd">
        <g id="card-plan-diamond" transform="translate(-139.000000, -28.000000)" fill="#D31546" fill-rule="nonzero">
            <path d="M174.667358,36.7018139 L169.703392,28.9585165 C169.318683,28.3583635 168.666362,28 167.958523,28 L146.057029,28 C145.350259,28 144.698562,28.3574633 144.313674,28.956086 L139.334292,36.7003736 C138.825446,37.4916358 138.904045,38.53639 139.525443,39.2408744 L155.446884,57.2967758 C155.84095,57.7436274 156.406651,58 156.999087,58 C156.999176,58 156.999087,58 156.999176,58 C157.591523,58 158.157402,57.7437175 158.551468,57.2968659 L174.474691,39.2398842 C175.095198,38.5362099 175.174421,37.492536 174.667358,36.7018139 Z M166.952951,29.8002791 L162.778276,36.3212158 L158.601105,29.8002791 L166.952951,29.8002791 Z M161.140433,37.0784511 L152.857741,37.0784511 L156.999087,30.6134158 L161.140433,37.0784511 Z M155.397069,29.8004591 L151.231395,36.3034822 L147.067146,29.8004591 L155.397069,29.8004591 L155.397069,29.8004591 Z M145.419323,30.5417611 L149.605048,37.0784511 L141.216398,37.0784511 L145.419323,30.5417611 Z M141.592819,38.8788202 L150.561785,38.8788202 L155.304122,54.4281578 L141.592819,38.8788202 Z M156.999087,53.8707635 L152.426692,38.8788202 L161.571482,38.8788202 L156.999087,53.8707635 Z M158.693963,54.4286979 L163.436478,38.8789102 L172.406246,38.8789102 L158.693963,54.4286979 Z M164.416118,37.0784511 L168.598011,30.546262 L172.78543,37.0784511 L164.416118,37.0784511 Z" id="icDiamond"></path>
        </g>
    </g>
</svg>